<svg xmlns="http://www.w3.org/2000/svg" xmlns:xlink="http://www.w3.org/1999/xlink" viewBox="0 0 1042 1042" style="fill-rule:evenodd;clip-rule:evenodd;stroke-linejoin:round;stroke-miterlimit:2;">
    <g transform="matrix(1,0,0,1,-312,-142)">
        <g transform="matrix(1038.75,-1038.75,-1038.75,-1038.75,314.531,1181.19)">
            <path d="M0.75,0.251C0.739,0.262 0.727,0.272 0.715,0.281C0.708,0.286 0.701,0.291 0.694,0.296C0.65,0.325 0.6,0.344 0.549,0.351C0.516,0.356 0.482,0.356 0.449,0.351C0.398,0.344 0.348,0.325 0.303,0.296C0.284,0.283 0.265,0.268 0.248,0.251C0.22,0.223 0.22,0.178 0.248,0.15C0.276,0.123 0.321,0.123 0.348,0.15C0.366,0.168 0.386,0.182 0.407,0.192C0.465,0.22 0.533,0.22 0.591,0.192C0.612,0.182 0.632,0.168 0.649,0.15L0.758,0.042C0.773,0.027 0.789,0.015 0.806,0.006C0.821,-0.003 0.837,-0.009 0.853,-0.013C0.902,-0.026 0.954,-0.022 1,-0L0.75,0.251ZM0.525,0.115C0.499,0.112 0.482,0.097 0.474,0.088C0.465,0.078 0.466,0.062 0.477,0.052C0.487,0.043 0.503,0.044 0.513,0.054C0.515,0.057 0.521,0.063 0.531,0.064C0.541,0.065 0.551,0.061 0.557,0.052C0.564,0.042 0.564,0.026 0.556,0.016C0.549,0.008 0.538,0.006 0.535,0.005L0.33,-0.014L0.447,-0.132C0.457,-0.142 0.474,-0.142 0.483,-0.132C0.493,-0.122 0.493,-0.106 0.483,-0.096L0.443,-0.055L0.541,-0.045C0.551,-0.044 0.577,-0.039 0.596,-0.015C0.618,0.013 0.619,0.052 0.599,0.081C0.596,0.085 0.593,0.089 0.59,0.092C0.573,0.109 0.549,0.118 0.525,0.115ZM0.649,-0.15C0.632,-0.168 0.612,-0.182 0.591,-0.192C0.533,-0.22 0.465,-0.22 0.407,-0.192C0.386,-0.182 0.366,-0.168 0.348,-0.15L0.24,-0.042C0.225,-0.027 0.209,-0.015 0.192,-0.006C0.177,0.003 0.161,0.009 0.145,0.013C0.096,0.026 0.044,0.022 -0.003,0L0.248,-0.251C0.259,-0.262 0.271,-0.272 0.282,-0.281C0.289,-0.286 0.296,-0.291 0.303,-0.296C0.348,-0.325 0.398,-0.344 0.449,-0.351C0.482,-0.356 0.516,-0.356 0.549,-0.351C0.6,-0.344 0.65,-0.325 0.694,-0.296C0.714,-0.283 0.732,-0.268 0.75,-0.251C0.777,-0.223 0.777,-0.178 0.75,-0.15C0.722,-0.123 0.677,-0.123 0.649,-0.15Z" style="fill:url(#s2logo-gradient);fill-rule:nonzero;"/>
        </g>
    </g>
    <defs>
        <linearGradient id="s2logo-gradient" x1="0" y1="0" x2="1" y2="0" gradientUnits="userSpaceOnUse" gradientTransform="matrix(1,0,0,-1,0,3.73045e-07)">
            <stop offset="0" style="stop-color:rgb(45,19,75);stop-opacity:1"/>
            <stop offset="0.37" style="stop-color:rgb(25,38,101);stop-opacity:1"/>
            <stop offset="1" style="stop-color:rgb(17,88,163);stop-opacity:1"/>
        </linearGradient>
    </defs>
</svg>
